<svg width="13" height="12" viewBox="0 0 13 12" fill="none" xmlns="http://www.w3.org/2000/svg">
<g id="calendar-02">
<path id="Vector" d="M6.31209 6.37128H8.76259M4.8418 6.37128H4.8462M7.29229 8.33168H4.8418M8.76259 8.33168H8.75818" stroke="#999999" stroke-width="0.735148" stroke-linecap="round" stroke-linejoin="round"/>
<path id="Vector_2" d="M9.74276 0.980202V1.9604M3.86157 0.980202V1.9604" stroke="#999999" stroke-width="0.735148" stroke-linecap="round" stroke-linejoin="round"/>
<path id="Vector_3" d="M2.14624 6.00038C2.14624 3.86489 2.14624 2.79713 2.7599 2.13372C3.37357 1.4703 4.36124 1.4703 6.33659 1.4703H7.26777C9.24312 1.4703 10.2308 1.4703 10.8445 2.13372C11.4581 2.79713 11.4581 3.86489 11.4581 6.00038V6.2521C11.4581 8.38761 11.4581 9.45534 10.8445 10.1188C10.2308 10.7822 9.24312 10.7822 7.26777 10.7822H6.33659C4.36124 10.7822 3.37357 10.7822 2.7599 10.1188C2.14624 9.45534 2.14624 8.38761 2.14624 6.2521V6.00038Z" stroke="#999999" stroke-width="0.735148" stroke-linecap="round" stroke-linejoin="round"/>
<path id="Vector_4" d="M2.39111 3.92079H11.2129" stroke="#999999" stroke-width="0.735148" stroke-linecap="round" stroke-linejoin="round"/>
</g>
</svg>
