<svg width="16" height="16" viewBox="0 0 16 16" fill="none" xmlns="http://www.w3.org/2000/svg">
<g id="Facebook Logo" clip-path="url(#clip0_73_8607)">
<rect width="15" height="15" transform="translate(0.5 0.465942)" fill="#1877F2"/>
<path id="path14" d="M15.5 8.60944C15.5 4.60537 12.2541 1.35944 8.25 1.35944C4.24593 1.35944 1 4.60537 1 8.60944C1 12.2281 3.65122 15.2275 7.11719 15.7714V10.7051H5.27637V8.60944H7.11719V7.01217C7.11719 5.19514 8.19956 4.19147 9.85562 4.19147C10.6488 4.19147 11.4785 4.33307 11.4785 4.33307V6.11725H10.5643C9.66368 6.11725 9.38281 6.67611 9.38281 7.24945V8.60944H11.3936L11.0721 10.7051H9.38281V15.7714C12.8488 15.2275 15.5 12.2281 15.5 8.60944Z" fill="white"/>
</g>
<defs>
<clipPath id="clip0_73_8607">
<rect width="15" height="15" fill="white" transform="translate(0.5 0.465942)"/>
</clipPath>
</defs>
</svg>
