<svg width="12" height="14" viewBox="0 0 12 14" fill="none" xmlns="http://www.w3.org/2000/svg">
<path id="path4" d="M11.2695 10.4572C11.072 10.894 10.8382 11.2959 10.5673 11.6655C10.1982 12.1694 9.89587 12.5181 9.6629 12.7118C9.30177 13.0297 8.91485 13.1925 8.50051 13.2018C8.20306 13.2018 7.84435 13.1207 7.42679 12.9564C7.00786 12.7928 6.62287 12.7118 6.27085 12.7118C5.90166 12.7118 5.5057 12.7928 5.08218 12.9564C4.65801 13.1207 4.3163 13.2064 4.05505 13.2149C3.65772 13.2311 3.26169 13.0636 2.86638 12.7118C2.61407 12.5012 2.29848 12.1401 1.92042 11.6285C1.5148 11.0822 1.18131 10.4487 0.920057 9.72655C0.640261 8.94648 0.5 8.1911 0.5 7.4598C0.5 6.62209 0.68911 5.89958 1.0679 5.29412C1.36559 4.8078 1.76162 4.42416 2.25729 4.14254C2.75296 3.86091 3.28853 3.7174 3.86529 3.70821C4.18088 3.70821 4.59473 3.80165 5.10902 3.98529C5.62186 4.16954 5.95115 4.26298 6.09552 4.26298C6.20346 4.26298 6.56927 4.15373 7.1894 3.93591C7.77583 3.73391 8.27078 3.65027 8.67624 3.68321C9.77495 3.76809 10.6004 4.18266 11.1493 4.92955C10.1667 5.49944 9.68064 6.29764 9.69031 7.32161C9.69918 8.11919 10.0015 8.7829 10.5956 9.3099C10.8648 9.55449 11.1655 9.74352 11.5 9.87778C11.4275 10.0792 11.3509 10.2721 11.2695 10.4572ZM8.7496 0.966014C8.7496 1.59116 8.51099 2.17485 8.0354 2.71511C7.46145 3.35738 6.76724 3.72851 6.01443 3.66994C6.00484 3.59495 5.99927 3.51601 5.99927 3.43307C5.99927 2.83293 6.27222 2.19067 6.75693 1.66553C6.99892 1.39964 7.30668 1.17856 7.67991 1.0022C8.05232 0.828471 8.40459 0.732395 8.73589 0.715942C8.74557 0.799514 8.7496 0.883091 8.7496 0.966005V0.966014Z" fill="white"/>
</svg>
