<svg width="21" height="20" viewBox="0 0 21 20" fill="none" xmlns="http://www.w3.org/2000/svg">
<g id="smart-phone-01">
<path id="Vector" d="M4.6665 7.49996C4.6665 4.7501 4.6665 3.37517 5.52078 2.5209C6.37505 1.66663 7.74998 1.66663 10.4998 1.66663C13.2497 1.66663 14.6246 1.66663 15.4789 2.5209C16.3332 3.37517 16.3332 4.7501 16.3332 7.49996V12.5C16.3332 15.2498 16.3332 16.6247 15.4789 17.479C14.6246 18.3333 13.2497 18.3333 10.4998 18.3333C7.74998 18.3333 6.37505 18.3333 5.52078 17.479C4.6665 16.6247 4.6665 15.2498 4.6665 12.5V7.49996Z" stroke="#3498DB" stroke-width="1.25" stroke-linecap="round"/>
<path id="Vector_2" d="M9.6665 15.8334H11.3332" stroke="#3498DB" stroke-width="1.25" stroke-linecap="round" stroke-linejoin="round"/>
<path id="Vector_3" d="M8 1.66663L8.07417 2.11164C8.2349 3.07603 8.31527 3.55823 8.64599 3.85166C8.991 4.15774 9.48008 4.16663 10.5 4.16663C11.5199 4.16663 12.009 4.15774 12.354 3.85166C12.6847 3.55823 12.7651 3.07603 12.9258 2.11164L13 1.66663" stroke="#3498DB" stroke-width="1.25" stroke-linejoin="round"/>
</g>
</svg>
