<svg width="13" height="12" viewBox="0 0 13 12" fill="none" xmlns="http://www.w3.org/2000/svg">
<g id="view">
<path id="Vector" d="M11.4794 5.41315C11.6284 5.62208 11.7029 5.72657 11.7029 5.88119C11.7029 6.03582 11.6284 6.14031 11.4794 6.34924C10.8099 7.28807 9.10004 9.31189 6.80187 9.31189C4.50369 9.31189 2.79389 7.28807 2.12438 6.34924C1.97538 6.14031 1.90088 6.03582 1.90088 5.88119C1.90088 5.72657 1.97538 5.62208 2.12438 5.41315C2.79389 4.47433 4.50369 2.4505 6.80187 2.4505C9.10004 2.4505 10.8099 4.47433 11.4794 5.41315Z" stroke="#999999" stroke-width="0.735148"/>
<path id="Vector_2" d="M8.27263 5.88119C8.27263 5.06914 7.61437 4.41089 6.80233 4.41089C5.99028 4.41089 5.33203 5.06914 5.33203 5.88119C5.33203 6.69323 5.99028 7.35148 6.80233 7.35148C7.61437 7.35148 8.27263 6.69323 8.27263 5.88119Z" stroke="#999999" stroke-width="0.735148"/>
</g>
</svg>
